<svg width="154" height="38" viewBox="0 0 154 38" fill="none" xmlns="http://www.w3.org/2000/svg">
<path d="M41.9414 33.719C41.9414 34.5571 42.3607 35.2389 43.4622 35.7621C44.9829 36.4952 47.4438 37.1242 49.6468 37.1242C52.4236 37.1242 54.7307 36.2861 56.3548 34.8199C56.8791 34.348 57.3188 33.7147 57.4085 32.8818C57.6134 30.9718 55.5983 27.7817 51.4288 25.4442C53.4559 26.5801 53.9443 27.7485 53.9443 29.2684C53.9443 31.5206 52.1623 33.0397 49.5938 33.0397C47.1321 33.0397 45.0324 31.7817 43.8814 31.7817C42.7304 31.7817 41.9414 32.566 41.9414 33.719Z" fill="url(#paint0_linear_4255_14513)"/>
<path d="M69.8297 9.90251H73.4356V3.47282H75.993V0.875H67.2715V3.47282H69.8297V9.90251Z" fill="white"/>
<path d="M78.6526 9.90251L80.4893 4.50376L82.3268 9.90251H85.8516L82.3968 0.875H78.5817L75.127 9.90251H78.6526Z" fill="white"/>
<path d="M87.5437 9.90251H91.1504V3.47282H93.7078V0.875H84.9863V3.47282H87.5437V9.90251Z" fill="white"/>
<path d="M96.3666 9.90251L98.2033 4.50376L100.041 9.90251H103.566L100.112 0.875H96.2966L92.8418 9.90251H96.3666Z" fill="white"/>
<path d="M130.97 16.3578C131.447 17.4271 131.987 18.4675 132.589 19.4711L134.943 23.4421H136.652V14.4154H135.126V17.5645C135.126 18.9445 135.158 20.106 135.274 21.3059L135.243 21.3153C134.8 20.2733 134.286 19.2628 133.704 18.2899L131.37 14.4146H129.486V23.4421H131.011V20.2093C131.011 18.7269 130.99 17.5355 130.925 16.3638L130.97 16.3578Z" fill="white"/>
<path d="M122.779 20.8912H125.646L126.464 23.4421H128.234L125.299 14.4154H123.2L120.301 23.4421H122.007L122.779 20.8912ZM123.746 17.4152C123.904 16.8775 124.044 16.2528 124.176 15.7211H124.204C124.34 16.2434 124.486 16.8588 124.662 17.4152L125.374 19.6401H123.048L123.746 17.4152Z" fill="white"/>
<path d="M95.8898 22.219C95.1255 22.2131 94.375 22.0151 93.7081 21.643L93.3418 23.0085C93.8362 23.3106 94.8275 23.5845 95.783 23.5845C98.115 23.5845 99.2096 22.3232 99.2096 20.8706C99.2096 19.5734 98.4565 18.7849 96.8862 18.1875C95.6797 17.7275 95.1571 17.4015 95.1571 16.7093C95.1571 16.1777 95.602 15.6221 96.6497 15.6221C97.2765 15.6178 97.8955 15.7646 98.4539 16.0505L98.8493 14.7209C98.3788 14.4819 97.6607 14.2737 96.683 14.2737C94.7242 14.2737 93.487 15.3883 93.487 16.8655C93.487 18.1593 94.4407 18.959 95.935 19.4889C97.0766 19.9029 97.536 20.3048 97.536 20.9867C97.5318 21.7258 96.9434 22.219 95.8898 22.219Z" fill="white"/>
<path d="M72.1761 15.6349C72.7807 15.6281 73.3801 15.7475 73.9351 15.9865L74.2946 14.6748C73.9599 14.4939 73.194 14.2745 72.1061 14.2745C69.3455 14.2745 67.2715 16.0625 67.2715 19.0358C67.2715 21.783 69.0177 23.5845 71.8858 23.5845C72.9779 23.5845 73.8378 23.3703 74.2289 23.174L73.9565 21.8751C73.5201 22.0706 72.8268 22.2028 72.1556 22.2028C70.1704 22.2028 69.0108 20.9415 69.0108 18.953C69.0091 16.7836 70.3335 15.6349 72.1761 15.6349Z" fill="white"/>
<path d="M118.295 23.4421V15.8014H120.899V14.4154H114.064V15.8014H116.645V23.4421H118.295Z" fill="white"/>
<path d="M151.272 14.4154L150.184 16.7273C149.875 17.3862 149.625 17.9435 149.402 18.5152H149.375C149.127 17.9033 148.895 17.3904 148.587 16.7273L147.515 14.4154H145.631L148.487 19.6861V23.4429H150.137V19.6401L153.137 14.4163L151.272 14.4154Z" fill="white"/>
<path d="M79.0772 14.2677C76.5258 14.2677 74.7754 16.2255 74.7754 18.9982C74.7754 21.6404 76.3901 23.5914 78.9431 23.5914H78.9559C81.4296 23.5914 83.2646 21.8623 83.2646 18.8369C83.2654 16.257 81.7105 14.2677 79.0772 14.2677ZM79.0123 22.2685H78.9995C77.4224 22.2685 76.5002 20.7512 76.5045 18.9564C76.5096 17.1617 77.3712 15.5862 79.0166 15.5862C80.662 15.5862 81.509 17.1958 81.509 18.8984C81.509 20.7896 80.6056 22.2711 79.0115 22.2711L79.0123 22.2685Z" fill="white"/>
<path d="M142.983 15.6349C143.587 15.6281 144.188 15.7484 144.743 15.9865L145.102 14.6748C144.767 14.4939 144.001 14.2745 142.914 14.2745C140.152 14.2745 138.078 16.0625 138.078 19.0358C138.078 21.783 139.824 23.5845 142.692 23.5845C143.785 23.5845 144.644 23.3712 145.036 23.174L144.763 21.8751C144.327 22.0723 143.633 22.2037 142.962 22.2037C140.977 22.2037 139.817 20.9415 139.817 18.953C139.816 16.7836 141.14 15.6349 142.983 15.6349Z" fill="white"/>
<path d="M111.267 14.4154H109.615V23.4429H114.98V22.0587H111.267V14.4154Z" fill="white"/>
<path d="M107.738 19.5718V14.4154H106.088V19.6785C106.088 21.4476 105.373 22.2635 104.184 22.2635C103.066 22.2635 102.333 21.4425 102.333 19.6785V14.4154H100.684V19.5795C100.684 22.4188 102.041 23.5906 104.125 23.5906C106.306 23.5914 107.738 22.3531 107.738 19.5718Z" fill="white"/>
<path d="M91.8454 14.4154H90.3195V17.5645C90.3195 18.9445 90.3503 20.106 90.4664 21.3059L90.4356 21.3153C89.9925 20.2733 89.4785 19.262 88.897 18.2899L86.5633 14.4146H84.6797V23.4421H86.2073V20.2093C86.2073 18.7269 86.1851 17.5355 86.1193 16.3638L86.162 16.3544C86.6385 17.4246 87.179 18.464 87.7818 19.4677L90.1359 23.4386H91.8454V14.4154Z" fill="white"/>
<path d="M98.9036 27.9551H97.2539V36.9817H98.9036V27.9551Z" fill="white"/>
<path d="M85.9115 32.7503V32.7128C86.7594 32.4132 87.5398 31.6272 87.5398 30.4734C87.5398 29.7053 87.2572 29.0857 86.7688 28.6761C86.1643 28.1717 85.1217 27.9541 84.004 27.9541C83.1731 27.9413 82.3423 28.0062 81.5234 28.147V36.9816H83.1475V33.2999H83.9715C84.9022 33.3221 85.3275 33.701 85.5845 34.8677C85.8338 35.9814 86.0498 36.7196 86.1865 36.9816H87.8686C87.6884 36.6317 87.4451 35.6042 87.1616 34.4845C86.937 33.614 86.5596 32.9961 85.9115 32.7503ZM84.1141 32.0992H83.1458V29.2701C83.4805 29.2052 83.8221 29.1779 84.1628 29.1881C85.2216 29.1881 85.9081 29.6481 85.9081 30.6245C85.9081 31.5146 85.2241 32.0992 84.1141 32.0992Z" fill="white"/>
<path d="M93.2102 32.0847C92.861 33.1805 92.5314 34.2831 92.2923 35.349H92.2641C92.0293 34.2575 91.7219 33.201 91.3787 32.0608L90.1457 27.9558H88.3457L91.2651 36.9825H93.1573L96.279 27.9558H94.5235L93.2102 32.0847Z" fill="white"/>
<path d="M110.322 32.9775H113.726V31.6316H110.322V29.3129H113.929V27.9551H108.672V36.9826H114.128V35.6256H110.322V32.9775Z" fill="white"/>
<path d="M105.231 29.1746C105.835 29.1677 106.436 29.2881 106.991 29.5262L107.35 28.2145C107.015 28.0335 106.249 27.8142 105.162 27.8142C102.4 27.8142 100.326 29.6072 100.326 32.5755C100.326 35.3226 102.072 37.1242 104.94 37.1242C106.033 37.1242 106.892 36.9109 107.284 36.7137L107.011 35.4148C106.575 35.6119 105.881 35.7434 105.21 35.7434C103.225 35.7434 102.066 34.4811 102.066 32.4927C102.061 30.3233 103.386 29.1746 105.231 29.1746Z" fill="white"/>
<path d="M70.8158 31.728C69.6093 31.268 69.0876 30.942 69.0876 30.2499C69.0876 29.7182 69.5324 29.1626 70.5793 29.1626C71.206 29.1583 71.8251 29.3051 72.3835 29.591L72.7788 28.2614C72.3084 28.0224 71.5903 27.8142 70.6126 27.8142C68.6546 27.8142 67.4174 28.9288 67.4174 30.4061C67.4174 31.6998 68.3703 32.5004 69.8654 33.0295C71.0079 33.4442 71.4664 33.8462 71.4664 34.5272C71.4664 35.2663 70.8773 35.7596 69.8244 35.7596C69.0602 35.7536 68.3105 35.5556 67.6437 35.1835L67.2773 36.549C67.7709 36.8511 68.7622 37.1251 69.7186 37.1251C72.0505 37.1251 73.1443 35.8637 73.1443 34.4112C73.1392 33.114 72.3844 32.3254 70.8158 31.728Z" fill="white"/>
<path d="M76.2725 32.9775H79.6752V31.6316H76.2725V29.3129H79.8793V27.9551H74.6211V36.9826H80.0774V35.6256H76.2725V32.9775Z" fill="white"/>
<path d="M118.721 31.728C117.514 31.268 116.992 30.942 116.992 30.2499C116.992 29.7182 117.437 29.1626 118.484 29.1626C119.111 29.1583 119.73 29.3051 120.289 29.591L120.684 28.2614C120.214 28.0224 119.495 27.8142 118.518 27.8142C116.559 27.8142 115.322 28.9288 115.322 30.4061C115.322 31.6998 116.275 32.5004 117.77 33.0295C118.911 33.4442 119.371 33.8462 119.371 34.5272C119.371 35.2663 118.782 35.7596 117.73 35.7596C116.966 35.7536 116.216 35.5556 115.548 35.1835L115.182 36.549C115.676 36.8511 116.667 37.1251 117.623 37.1251C119.955 37.1251 121.049 35.8637 121.049 34.4112C121.043 33.114 120.289 32.3254 118.721 31.728Z" fill="white"/>
<path d="M13.2717 36.4943C15.3714 35.7092 16.9929 34.2422 18.0415 32.0949L15.6831 27.8517C14.6345 30.994 12.8012 32.671 10.2849 32.671C7.66519 32.671 5.93524 31.1511 5.93524 27.6947L5.87974 29.6832C5.41865 33.9025 7.93843 37.6601 13.2717 36.4943Z" fill="url(#paint1_linear_4255_14513)"/>
<path d="M19.0918 22.8259C19.0918 32.2041 22.8651 37.4424 34.8142 35.6588C38.6395 33.6686 41.3651 29.6345 43.2513 23.454L44.352 19.8397C43.3043 18.4777 42.885 16.9594 42.885 15.3354C42.885 13.6063 43.5134 12.0352 44.562 10.8831C42.9892 12.5592 41.6802 15.0213 40.6316 18.4811L39.426 22.4606C37.275 29.4757 33.8724 32.828 28.5775 32.828C22.76 32.828 19.0918 28.7947 19.0918 22.8259Z" fill="url(#paint2_linear_4255_14513)"/>
<path d="M34.8131 35.6571C22.8674 37.4382 19.0916 31.0477 19.0916 22.8267C19.0916 16.8553 22.7598 12.7691 28.053 12.7691C29.7915 12.7563 31.5103 13.1318 33.0849 13.8692C33.7662 14.1832 34.3426 14.2882 34.8669 14.2882C36.1246 14.2882 36.9632 13.4501 36.9632 12.1896C36.9632 11.4045 36.4918 10.6185 35.3912 10.0945C33.3999 9.09853 30.8298 8.52246 28.0538 8.52246C19.7738 8.52246 14.0605 14.3897 14.0605 22.9274C14.0605 31.3089 19.5629 37.1232 28.421 37.1232C30.8315 37.1232 32.9269 36.6521 34.8131 35.6571Z" fill="url(#paint3_linear_4255_14513)"/>
<path d="M14.0586 22.9282C14.0586 14.3897 19.7719 8.52332 28.0519 8.52332C30.8295 8.52332 33.398 9.10193 35.3892 10.0953C36.4899 10.6193 36.9612 11.4053 36.9612 12.1905C36.9612 13.4484 36.1227 14.289 34.8649 14.289C34.3407 14.289 33.7643 14.1841 33.0829 13.87C31.5084 13.1344 29.7895 12.758 28.051 12.7699C20.7675 12.7682 14.0586 17.3759 14.0586 22.9282Z" fill="url(#paint4_linear_4255_14513)"/>
<path d="M45.3482 10.2003C44.876 10.6509 44.6104 11.2765 44.6139 11.9294C44.6139 13.6575 46.2388 16.2246 50.0129 18.8429L54.3105 21.8282C57.4544 24.0283 58.7122 26.1235 58.7122 29.2666C58.7122 31.5188 57.8216 33.4569 56.3538 34.819C56.8781 34.3471 57.1923 33.719 57.1923 32.8809C57.1923 31.0477 55.3573 28.1666 51.4269 25.4433L47.4965 22.72C44.1946 20.4158 42.8848 18.2677 42.8848 15.3345C42.8848 13.6055 43.5132 12.0343 44.5618 10.8822C44.8103 10.639 45.0732 10.412 45.3482 10.2003Z" fill="url(#paint5_linear_4255_14513)"/>
<path d="M50.0113 18.8464C48.3334 17.6414 47.6008 16.5422 47.6008 15.2322C47.6008 13.5561 48.9636 12.5089 50.9019 12.5089C53.3636 12.5089 54.5214 13.661 55.9858 13.661C57.1394 13.661 57.925 12.8759 57.925 11.7229C57.925 10.8849 57.5057 10.203 56.4042 9.67983C54.6743 8.84176 52.7846 8.52686 50.7439 8.52686C48.5955 8.52686 46.7085 9.15583 45.3457 10.2038C44.8735 10.6544 44.6079 11.28 44.6114 11.9329C44.6131 13.6568 46.238 16.2239 50.0113 18.8464Z" fill="url(#paint6_linear_4255_14513)"/>
<path d="M0.904297 13.8667C0.904297 10.7244 2.94847 8.83829 5.93618 8.83829V3.49501C5.93618 1.923 4.88762 0.875854 3.42066 0.875854C1.95371 0.875854 0.90515 1.92386 0.90515 3.49501V13.8667H0.904297Z" fill="url(#paint7_linear_4255_14513)"/>
<path d="M9.81447 37.0713C10.992 37.0756 12.1609 36.8793 13.2727 36.4927C7.9795 37.3837 5.98912 33.743 5.93618 29.6841V12.9237H12.0678C13.4836 12.9237 14.4262 12.0857 14.4262 10.8806C14.4262 9.67559 13.4853 8.83752 12.0678 8.83752H5.93618C2.94847 8.83752 0.904297 10.7236 0.904297 13.8659V28.2708C0.904297 34.0331 4.20623 37.0713 9.81447 37.0713Z" fill="url(#paint8_linear_4255_14513)"/>
<defs>
<linearGradient id="paint0_linear_4255_14513" x1="55.9174" y1="30.0744" x2="41.7161" y2="33.8357" gradientUnits="userSpaceOnUse">
<stop stop-color="#EE3984"/>
<stop offset="1" stop-color="#7800DA"/>
</linearGradient>
<linearGradient id="paint1_linear_4255_14513" x1="5.0715" y1="33.5322" x2="19.6162" y2="28.9148" gradientUnits="userSpaceOnUse">
<stop stop-color="#EE3984"/>
<stop offset="1" stop-color="#7800DA"/>
</linearGradient>
<linearGradient id="paint2_linear_4255_14513" x1="27.0362" y1="30.9041" x2="36.8205" y2="14.9103" gradientUnits="userSpaceOnUse">
<stop stop-color="#EE3984"/>
<stop offset="1" stop-color="#7800DA"/>
</linearGradient>
<linearGradient id="paint3_linear_4255_14513" x1="24.6697" y1="15.6733" x2="29.8555" y2="33.97" gradientUnits="userSpaceOnUse">
<stop stop-color="#FF0000"/>
<stop offset="1" stop-color="#EE3984"/>
</linearGradient>
<linearGradient id="paint4_linear_4255_14513" x1="14.0587" y1="15.7257" x2="36.961" y2="15.7257" gradientUnits="userSpaceOnUse">
<stop stop-color="#FFC708"/>
<stop offset="1" stop-color="#FA3B00"/>
</linearGradient>
<linearGradient id="paint5_linear_4255_14513" x1="42.8849" y1="22.5094" x2="58.7118" y2="22.5094" gradientUnits="userSpaceOnUse">
<stop stop-color="#FF0000"/>
<stop offset="1" stop-color="#EE3984"/>
</linearGradient>
<linearGradient id="paint6_linear_4255_14513" x1="44.6122" y1="13.6868" x2="57.9247" y2="13.6868" gradientUnits="userSpaceOnUse">
<stop stop-color="#FFC708"/>
<stop offset="1" stop-color="#F05731"/>
</linearGradient>
<linearGradient id="paint7_linear_4255_14513" x1="3.42037" y1="2.25861" x2="3.42037" y2="12.6299" gradientUnits="userSpaceOnUse">
<stop stop-color="#FFC708"/>
<stop offset="1" stop-color="#F05731"/>
</linearGradient>
<linearGradient id="paint8_linear_4255_14513" x1="9.12432" y1="10.2283" x2="6.41294" y2="29.8518" gradientUnits="userSpaceOnUse">
<stop stop-color="#F80000"/>
<stop offset="1" stop-color="#EE3984"/>
</linearGradient>
</defs>
</svg>
